<?xml version="1.0" encoding="utf-8"?>
<!-- Generator: Adobe Illustrator 21.1.0, SVG Export Plug-In . SVG Version: 6.00 Build 0)  -->
<svg version="1.1" id="Calque_1" xmlns="http://www.w3.org/2000/svg" xmlns:xlink="http://www.w3.org/1999/xlink" x="0px" y="0px"
	 viewBox="0 0 432 432" style="enable-background:new 0 0 432 432;" xml:space="preserve">
<style type="text/css">
	.st0{fill:#E79C9C;}
	.st1{fill:#80CAD6;}
	.st2{fill:#BF4607;}
	.st3{fill:#EC8C04;}
	.st4{fill:#FFCA06;}
	.st5{fill:#5F3B19;}
	.st6{fill:#FFBD4F;}
	.st7{fill:#B9562F;}
	.st8{fill:#D67C83;}
	.st9{fill:#96BC86;}
	.st10{fill:#333333;}
	.st11{fill:#39B54A;}
	.st12{fill:#C1272D;}
	.st13{fill:#0071BC;}
	.st14{fill:#1A1A1A;}
	.st15{fill:#DEBA7C;}
	.st16{fill:#985E4A;}
	.st17{fill:#BF9262;}
	.st18{fill:#3D3A35;}
	.st19{fill:#A74A5C;}
	.st20{fill:#808C6E;}
	.st21{fill:#CC9869;}
	.st22{fill:#C47E36;}
	.st23{fill:#CA5727;}
	.st24{fill:#FFB305;}
	.st25{fill:#CAC4BA;}
	.st26{fill:#528D98;}
	.st27{fill:#538B06;}
</style>
<g>
	<g>
		<g>
			<path d="M86,347.4l0.3,5.5l-2,0.1v11.4h-5.5v-11.1l-14.9,0.8v10.3h-5.5v-10l-1.7,0.1l-0.3-5.5l2-0.1v-24.1h5.5v23.8l14.9-0.8v-23
				h5.5v22.7L86,347.4z"/>
			<path d="M119.3,365.8l-5.5,0.2c-0.2-4-0.5-8.3-0.9-12.4L97,354.7c-0.4,3.9-0.5,7.7-0.5,11.2l-5.5,0c0-0.3,0-4.8,0.5-10.8
				l-2.7,0.2l-0.4-5.5l3.6-0.2c0.1-0.7,0.2-1.4,0.3-2.1c1.9-13.6,5.5-21.3,10.9-23.6c2-0.9,4.1-0.7,5.9,0.4
				c2.5,1.6,6.1,5.7,8.6,23.4c0,0,0,0.1,0,0.1l2.6-0.2l0.4,5.5l-2.3,0.2C119.1,360.1,119.3,365.5,119.3,365.8z M112.3,348.1
				c-1.4-9.7-3.5-17.7-6-19.3c-0.2-0.1-0.4-0.2-0.8,0c-3.9,1.7-6.4,10.6-7.8,20.3L112.3,348.1z"/>
			<path d="M128.4,335c-0.3,1.9,0.7,2.7,6,4.8c2.9,1.1,6.1,2.4,8.7,4.7c3.6,3.2,5.1,8.7,3.4,13c-1.6,4.3-6,6.8-11.9,6.8c0,0,0,0,0,0
				c-3.3,0-11-1.4-11-14.1h5.5c0,8.6,4.1,8.7,5.5,8.7c0,0,0,0,0,0c2.5,0,5.8-0.6,6.8-3.3c0.8-2.2,0-5.3-1.9-7
				c-1.9-1.6-4.5-2.7-7.1-3.7c-4.7-1.8-10.5-4.1-9.4-10.8c1-6.6,8.1-9.6,14.1-9.2c6.3,0.5,10.5,4.4,10.5,9.6h-5.5
				c0-3.5-4.5-4.1-5.4-4.1C133,330.1,128.9,331.7,128.4,335z"/>
			<path d="M198.6,365.8l-5.5,0.2c-0.2-4-0.5-8.3-0.9-12.4l-15.9,1.1c-0.4,3.9-0.5,7.7-0.5,11.2l-5.5,0c0-0.3,0-4.8,0.5-10.8
				l-2.7,0.2l-0.4-5.5l3.6-0.2c0.1-0.7,0.2-1.4,0.3-2.1c1.9-13.6,5.5-21.3,10.9-23.6c2-0.9,4.1-0.7,5.9,0.4
				c2.5,1.6,6.1,5.7,8.6,23.4c0,0,0,0.1,0,0.1l2.6-0.2l0.4,5.5l-2.3,0.2C198.4,360.1,198.6,365.5,198.6,365.8z M191.6,348.1
				c-1.4-9.7-3.5-17.7-6-19.3c-0.2-0.1-0.4-0.2-0.8,0c-3.9,1.7-6.4,10.6-7.8,20.3L191.6,348.1z"/>
			<path d="M230.2,361.6l-3.6,4.1c-4.3-3.8-9.8-12.9-11.9-16.7c-1.2,0.1-2.5,0.2-3.7,0.3l0.7,14.3l-5.5,0.3l-0.7-14.6
				c-1.1-0.1-2.2-0.2-3.3-0.3l0.5-5.5c0.9,0.1,1.7,0.1,2.5,0.2l-0.7-14.2c-0.7,0-1.3,0.1-2,0.1l-0.2-5.5c1.6-0.1,3.3-0.2,4.9-0.3
				c9.6-0.7,21.5-1.6,22.9,11.3c0.4,3.5-0.7,6.6-3,8.9c-1.8,1.8-4.1,3-6.7,3.8C223,352.3,227.2,358.9,230.2,361.6z M223.2,340.2
				c1.2-1.2,1.6-2.6,1.5-4.5c-0.7-6.4-4.8-7.1-14.7-6.6l0.7,14.6C216.6,343.6,221,342.4,223.2,340.2z"/>
			<path d="M260.4,361.6l-3.6,4.1c-4.3-3.8-9.8-12.9-11.9-16.7c-1.2,0.1-2.5,0.2-3.7,0.3l0.7,14.3l-5.5,0.3l-0.7-14.6
				c-1.1-0.1-2.2-0.2-3.3-0.3l0.5-5.5c0.9,0.1,1.7,0.1,2.5,0.2l-0.7-14.2c-0.7,0-1.3,0.1-2,0.1l-0.2-5.5c1.6-0.1,3.3-0.2,4.9-0.3
				c9.6-0.7,21.5-1.6,22.9,11.3c0.4,3.5-0.7,6.6-3,8.9c-1.8,1.8-4.1,3-6.7,3.8C253.2,352.3,257.4,358.9,260.4,361.6z M253.4,340.2
				c1.2-1.2,1.6-2.6,1.5-4.5c-0.7-6.4-4.8-7.1-14.7-6.6l0.7,14.6C246.8,343.6,251.2,342.4,253.4,340.2z"/>
			<path d="M277,364.4h-14.4v-5.5h4.5v-28.6h-4.5v-5.5H277v5.5h-4.5v28.6h4.5V364.4z"/>
			<path d="M308.5,324.3l5.1,1.9l-14.2,38.6h-5.9l-14.5-38.6l5.1-1.9l12.3,32.7L308.5,324.3z"/>
			<path d="M321.3,360.7h18.7v5.5h-24.2v-2.7c0-0.3,0-37.4,0-37.4v-2.9l20.9-0.3v5.5l-15.4,0.5v19.9l6.2-0.4l0.4,5.5l-6.6,0.5V360.7
				z"/>
			<path d="M373.2,352.8c-5,9.2-16.2,14.4-30.7,14.4v-5.5c1.2,0,2.4,0,3.5-0.1l-0.5-34.1c-0.9,0-1.9,0.1-2.8,0.1l-0.4-5.5
				c13.9-1.1,24.9,3,30.3,11.3C376.4,339.3,376.6,346.5,373.2,352.8z M367.9,336.4c-1.6-2.5-6.2-7.6-16.9-8.7l0.5,33.2
				c7.9-1.6,14-5.3,16.9-10.7C370.8,345.6,370.7,340.6,367.9,336.4z"/>
		</g>
		<g>
			<g>
				<path d="M228.2,135.9l0.2,5.5l-11.1,0.4v36.5h-5.5v-36.3l-10.9,0.4l-0.2-5.5L228.2,135.9z"/>
				<path d="M260.2,159.8l0.3,5.5l-2,0.1v11.4H253v-11.1l-14.9,0.8v10.3h-5.5v-10l-1.7,0.1l-0.3-5.5l2-0.1v-24.1h5.5V161l14.9-0.8
					v-23h5.5v22.7L260.2,159.8z"/>
				<path d="M268.1,173.2h18.7v5.5h-24.2v-2.7c0-0.3,0-37.4,0-37.4v-2.9l20.9-0.3v5.5l-15.4,0.5v19.9l6.2-0.4l0.4,5.5l-6.6,0.5
					V173.2z"/>
			</g>
			<g>
				<path class="st17" d="M262.5,88c-0.2,0.5-0.4,1-0.6,1.5c-1.7,4.6-3.2,9.2-5.1,13.7c-1.8,4.3-3.9,8.6-6.1,12.7
					c-1.2,2.3-2.9,4.5-4.6,6.5c-0.9,1.1-2.2,2.1-3.5,2.8c-2.6,1.5-5.2,1.3-7.7-0.3c-1.9-1.2-3.3-2.8-4.3-4.8
					c-1.6-3.1-2.5-6.4-3.1-9.9c-0.1-0.4-0.1-0.9-0.4-1.3c-0.2,0.3-0.3,0.7-0.5,1c-1.1,2.7-2.2,5.5-3.4,8.2c-0.7,1.5-1.6,2.9-2.7,4.2
					c-1,1.2-2.2,2.3-3.4,3.1c-2.4,1.6-5,1.8-7.6,0.7c-2.1-0.9-3.8-2.2-5.3-3.9c-2.7-2.9-4.5-6.4-6.2-9.9c-0.2-0.5-0.5-1-0.8-1.7
					c-0.2,0.8-0.3,1.2-0.5,1.7c-3.3,13.4-4.2,27-4.2,40.7c0,7.6,0.8,15.1,2.2,22.6c0.3,1.5,0.5,3.1,0.7,4.6c0.1,0.6,0,1.3-0.2,1.9
					c-0.4,1.2-1.7,1.5-2.6,0.6c-0.4-0.4-0.7-1-1-1.5c-1.3-2.8-1.9-5.8-2.4-8.8c-1.7-9.7-1.9-19.5-1.9-29.3c0.1-8,1.2-15.8,2.6-23.6
					c0.7-4.2,1.6-8.3,2.4-12.5c-0.3-0.2-0.7-0.4-1.1-0.7c-3.2-2-4.5-5.8-3.4-9.3c1.1-3.5,4.5-5.8,8.2-5.6c3.6,0.2,6.6,2.9,7.4,6.5
					c0.3,1.5,0.2,2.9-0.3,4.3c-0.2,0.6-0.2,1.1,0.1,1.7c2.1,4.2,4.4,8.4,7.2,12.1c0.5,0.7,1.1,1.3,1.8,1.9c1.5,1.2,2.9,1.3,4.4,0
					c0.8-0.6,1.5-1.4,2.1-2.2c1.5-2.1,2.8-4.3,3.7-6.7c0.9-2.5,1.8-5,2.7-7.6c-0.4-0.4-0.8-0.7-1.2-1c-3.1-3.1-3.2-8.1-0.2-11.3
					c3-3.1,7.9-3.4,11.2-0.6c3.3,2.9,3.8,7.9,1,11.2c-0.7,0.8-0.9,1.4-0.6,2.4c0.9,3.3,1.6,6.6,2.5,9.9c0.3,1.1,0.8,2.2,1.4,3.2
					c1.4,2.4,3,2.7,5.1,0.8c0.7-0.6,1.3-1.2,1.8-2c1.2-1.8,2.5-3.6,3.6-5.6c4.7-8.7,8.6-17.8,11.4-27.3c0.1-0.4,0.2-0.9,0.3-1.3
					c-0.4-0.3-0.7-0.6-1-0.9c-3.3-3.1-3.5-8.3-0.4-11.5c3.1-3.3,8.3-3.4,11.5-0.3c3.2,3.1,3.3,8.3,0.1,11.5
					c-0.9,0.8-1.1,1.6-1.1,2.7c0,7.1,0.8,14,1.7,21c0.5,3.5,1,7.1,1.7,10.6c0.3,1.5,0.9,2.9,1.5,4.2c1,1.9,2.2,2.2,4,1.1
					c1.1-0.7,2.3-1.5,3.1-2.6c1.3-1.6,2.5-3.4,3.7-5.1c-0.6-0.4-1-0.7-1.4-0.9c-3-2.1-4.2-5.9-3-9.4c1.2-3.6,4.6-5.8,8.4-5.5
					c3.5,0.2,6.6,2.9,7.2,6.4c0.6,3.1-0.3,5.8-2.7,7.9c-0.7,0.6-0.9,1.2-0.6,2.1c0.8,2.3,1.4,4.7,2.2,7c0.4,1,1,2,1.6,2.9
					c1.2,1.6,2.9,2,4.7,1.2c0.9-0.4,1.8-0.9,2.6-1.5c2.7-2,5.1-4.4,7.2-7c1.8-2.3,3.5-4.7,5-6.7c-0.7-1.7-1.6-3.1-1.9-4.7
					c-1-4.3,2.1-8.8,6.6-9.9c4.2-1,8.5,1.5,9.6,5.7c0.9,3.4-0.1,6.4-2.8,8.7c-1,0.9-1.4,1.8-1.5,3c-0.8,7.8-2.3,15.5-4.2,23.1
					c-1.5,6-3.5,12-5.9,17.7c-2.7,6.6-5.7,13.1-8.6,19.6c-2.8,6.4-6.5,12.2-10.3,18.1c-0.5,0.7-0.9,1.5-1.4,2.1
					c-0.4,0.5-0.9,1.1-1.5,1.4c-1.5,0.8-3.2-0.2-3.5-1.9c-0.1-1,0.3-1.8,0.6-2.6c4.5-9.8,8.9-19.7,12.5-29.9
					c4.1-11.7,7.9-23.5,10.8-35.6c0.5-2,0.9-4,1.3-6c0.1-0.4,0.1-0.7,0-1.2c-0.3,0.4-0.6,0.8-0.8,1.2c-2.8,4-6.1,7.6-9.9,10.7
					c-2.3,1.8-4.8,3.2-7.6,3.8c-4.1,0.8-7.8-0.9-10-4.5c-1.4-2.3-1.9-4.9-2.3-7.6c0-0.3-0.1-0.6-0.1-1.1c-0.4,0.6-0.7,1-1,1.4
					c-1.4,2.2-3.2,4.1-5.3,5.7c-3.8,2.6-8.1,2.3-11.4-0.9c-2.3-2.2-3.6-4.9-4.5-7.9c-1.1-3.9-1.6-8-1.8-12.1
					c-0.2-4.6-0.1-9.1-0.1-13.7c0-0.5,0-1,0-1.4C262.7,88.1,262.6,88.1,262.5,88z"/>
			</g>
		</g>
		<g>
			<g>
				<path d="M165.5,197.4c-2.8,4.1-5.5,8-8.3,12c0.1,0.2,0.3,0.5,0.4,0.8c3.4,5.8,4.8,12,4.4,18.8c-0.5,7.6-2.6,14.6-6.4,21.2
					c-2.1,3.6-4.8,6.6-8.2,8.9c-3.8,2.5-7.9,3.6-12.5,2.9c-5.2-0.7-8.8-3.9-10.1-9.1c-1.1-4.3-0.5-8.5,1-12.6c1.4-3.7,3.5-7,6-10.1
					c3.2-3.9,6.6-7.7,10-11.5c1.4-1.6,2.7-3.1,4.1-4.6c0.7-0.7,0.8-1.3,0.4-2.1c-0.6-1.2-1.1-2.5-1.8-3.6c-2.4-3.7-5.7-4.8-9.9-3.7
					c-2.2,0.6-4.1,1.7-5.8,3.2c-3.4,3-5.8,6.8-7.6,10.9c-2,4.5-3.1,9.3-3.9,14.2c-1,6.3-1.5,12.7-1.8,19
					c-0.5,10.4-2.5,20.5-6.2,30.3c-1.3,3.3-2.4,6.7-3.8,10c-1.8,4.4-4.3,8.3-7.1,12c-1,1.3-2.2,2.4-3.6,3.4c-1.2,0.8-2.6,1.2-4,0.7
					c-1.5-0.5-2.1-1.5-1.5-3c0.3-0.8,0.6-1.6,1.1-2.3c3.6-6,5.8-12.5,7.1-19.4c1.3-6.9,1.8-13.9,2.1-21c0.3-9.7,0.4-19.5,0.7-29.2
					c0.6-14.6,3.7-28.7,10-41.9c0.4-0.8,0.7-1.5,1.2-2.5c-0.8,0.1-1.3,0.6-1.8,0.9c-5.4,3.5-10.8,7-16.5,10c-3.5,1.9-7,3.7-10.5,5.6
					c-3.1,1.7-6.1,3.5-8.8,5.8c-3.9,3.4-7,7.4-8.5,12.4c-1.6,5.2-1,10.3,2.2,14.8c2.9,4.1,7.1,5.7,12.1,5.3c2.3-0.2,4.2-1.6,5.8-3.3
					c0.4-0.4,0.7-0.9,1.1-1.3c0.6-0.6,1.3-1,2.2-0.9c1.2,0.1,1.8,0.9,1.3,2c-0.6,1.1-1.3,2.3-2.2,3.2c-3.5,3.5-7.7,4.8-12.5,4.1
					c-10.5-1.6-14.8-9.4-15.5-16.7c-0.5-4.5,0.6-8.6,2.7-12.5c2.3-4.2,5.5-7.7,9.2-10.6c3.4-2.7,7.1-4.7,10.9-6.8
					c5.5-3,11-6,16.5-9.1c5.3-3,10.4-6.4,15.1-10.2c1.1-0.9,2.3-1.4,3.7-1.3c2.5,0.3,4.1,2,3.7,4.5c-0.6,3.5-1.3,7-2.1,10.5
					c-1.5,6.3-2.9,12.5-3.7,18.9c0,0.2,0,0.5,0,1.1c0.4-0.7,0.6-1.1,0.9-1.6c1.9-3.6,4-7,7.1-9.7c6-5.3,12.9-7.2,20.7-5.1
					c2.8,0.7,5.2,2.2,7.4,4c0.6,0.5,1.2,1,2,1.7c2.6-3.4,4.9-7,7-10.7c-0.4-0.4-0.8-0.8-1.2-1.1c-4.9-4.5-7.9-10-8.8-16.6
					c-0.4-3.1-0.2-6.2,1-9.2c3.3-7.8,10.8-7.4,15.1-4c3.3,2.6,4.8,6.1,5.5,10.1c0.7,4.2-0.1,8.2-1.4,12.1c-0.8,2.5-1.9,4.9-2.9,7.4
					c0.7,0.4,1.4,0.9,2.2,1.3c2.9,1.4,6,2.3,9.1,3c2.3,0.6,4.6,1.1,6.8,1.8c1.2,0.3,2.4,0.8,3.5,1.3c4.4,2.1,6.2,5.6,5.5,10.3
					c-0.5,3.4-1.5,6.7-2.8,9.8c-2.3,5.8-4.8,11.5-7.2,17.2c-3,7.2-5.8,14.6-7.5,22.2c-1.5,6.6-2.5,13.2-2.2,20
					c0.1,2.3,0.3,4.5,1.2,6.6c0.3,0.7,0.7,1.4,1.2,2.3c0.7-0.6,1.3-1,1.7-1.6c1.1-1.4,2.2-2.9,3.1-4.5c1.9-3.8,3.8-7.6,5.5-11.4
					c3.9-9,7.8-18,11.7-26.9c0.5-1,0.7-2.1,0.7-3.2c0.1-6.3,1.4-12.5,3.9-18.3c0.8-2,1.9-3.9,3.3-5.6c1.7-2,3.9-2.9,6.6-2.5
					c2.6,0.4,4.1,2.1,3.9,4.7c-0.2,2.4-0.7,4.8-1.3,7.1c-1.2,5.2-2.4,10.4-3,15.7c-0.4,3.3-0.4,6.6,0.2,9.9c0.1,0.8,0.5,1.6,0.9,2.6
					c0.8-0.7,1.4-1.1,1.8-1.7c1.1-1.5,2.4-3,3.3-4.7c2.6-4.9,5.1-9.8,7.5-14.8c0.4-0.9,0.5-1.9,0.6-2.9c0.6-4.6,1.4-9.1,2.7-13.6
					c0.7-2.4,1.6-4.6,3-6.7c1.5-2.5,3.7-3.7,6.7-3.4c2.3,0.3,3.8,1.7,4.3,4c0.4,1.9,0,3.7-0.2,5.5c-0.3,1.9-0.7,3.9-1,5.8
					c-0.1,0.3-0.1,0.6,0.2,1c0.2-0.4,0.5-0.9,0.7-1.3c2.7-5.1,6-9.8,10.4-13.8c2.3-2.1,4.9-3.9,7.8-5c2.6-1,5.2-1.4,8-0.9
					c4.7,0.9,7.6,4,8.1,8.8c0.4,3.7,0,7.2-1.1,10.7c-1.8,5.9-3.7,11.7-5.7,17.5c-2.3,6.9-4.5,13.8-5.7,20.9c-0.4,2.6-0.7,5.2-1,7.8
					c-0.1,0.4,0,0.9,0,1.5c0.9,0,1.8,0,2.7,0.1c8.6,0.6,16.3,3.3,22.8,9c1.9,1.7,3.6,3.6,4.9,5.9c3.8,6.7,2.9,14.6-2.5,20
					c-6.1,6-13.3,7.5-21.4,5.1c-4.9-1.5-8.8-4.5-12.1-8.4c-3.9-4.6-6.2-10-7.4-16c-0.5-2.3-0.7-4.6-1.1-7.1
					c-1.2,0.4-2.3,0.7-3.4,1.1c-7.5,2.6-14.6,6.1-21.4,9.9c-6,3.4-12,7-17.9,10.6c-7.4,4.4-15,8.4-23.1,11.4
					c-6.2,2.3-12.6,3.8-19.3,3.6c-9.9-0.2-18.8-3.2-26.4-9.9c-5.6-5-9.1-11.1-10.5-18.5c-0.6-3.2-0.9-6.4-1-9.6
					c0-1.2,0.3-2.1,1.4-2.6c1.1-0.6,2.2-0.7,3.3-0.1c0.7,0.4,1,1.1,1.1,1.9c0.5,2.7,1,5.4,1.4,8.2c1.7,10.7,7.9,17.9,17.6,22.3
					c8.5,3.9,17.2,3.8,26,1.1c6.5-2,12.6-5,18.5-8.4c5.8-3.4,11.6-7.1,17.4-10.6c8.3-5.1,16.8-9.9,25.9-13.5c3-1.2,6.2-2.2,9.2-3.2
					c0.3-0.1,0.6-0.2,0.9-0.3c0.1-0.7,0.1-1.4,0.2-2.1c0.5-8.8,2.3-17.3,5-25.7c2.5-7.8,5.4-15.6,8-23.4c1-3,1.9-6,2.7-9.1
					c0.2-0.9,0.2-1.9,0.3-3.1c-1,0.3-1.7,0.5-2.4,0.8c-2.3,1-4.2,2.6-5.9,4.3c-2.6,2.5-4.6,5.4-6.5,8.5c-4.4,7.1-7.3,14.9-9.3,22.9
					c-0.9,3.4-1.4,7-2.1,10.5c-0.2,0.7-0.4,1.5-0.9,2c-1.5,1.8-3.5,2.4-5.8,2.1c-1.6-0.3-2.6-1.4-3.2-2.9c-1.1-2.9-2-5.8-2.4-8.8
					c-0.1-1-0.3-2-0.5-3.4c-0.4,0.6-0.6,0.9-0.7,1.2c-1.5,2.7-3,5.5-4.7,8.1c-0.9,1.5-2.1,2.9-3.3,4.1c-4.1,3.9-9.8,3.9-13.7-0.2
					c-1.2-1.2-2.1-2.8-3.3-4.3c-0.2,0.5-0.4,0.9-0.6,1.4c-3.3,7.6-6.6,15.3-10,22.9c-1.6,3.6-3.4,7.1-5.7,10.2
					c-1.2,1.6-2.5,3.2-4,4.5c-2.7,2.3-5.9,3.1-9.4,2.2c-2.5-0.7-4.4-2.4-5.8-4.5c-1.9-2.8-2.9-5.9-3.6-9.2
					c-1.4-6.8-0.9-13.5,0.4-20.2c2-10.2,5.7-19.9,9.7-29.4c2.3-5.5,4.9-10.8,7.8-16c1.1-1.9,2.1-3.8,3-5.7c0.5-1,0.9-2.1,1.2-3.2
					c0.4-1.3,0.1-1.8-1.1-2.4c-1.3-0.6-2.6-1.1-3.9-1.5c-1.5-0.5-3.1-0.9-4.6-1.3C172,200.2,168.7,199.1,165.5,197.4z M265.3,276.9
					c0.5,6,1.9,11.6,4.7,16.8c1.2,2.1,2.6,4.1,4.4,5.7c1.7,1.6,3.6,2.9,5.9,3.5c2.4,0.6,4.5,0.2,6.2-1.6c2.6-2.6,3.1-5.8,2.4-9.2
					c-0.6-2.9-2.4-5.2-4.4-7.2c-3.9-3.9-8.7-6.2-14-7.4C268.7,277.2,267.1,276.8,265.3,276.9z M148.2,220.3
					c-0.1-0.1-0.2-0.1-0.4-0.2c-0.2,0.3-0.4,0.7-0.7,1c-1.9,2.2-4,4.4-5.8,6.7c-1.8,2.3-3.6,4.6-5.2,7c-2.3,3.4-3.7,7.2-4.2,11.3
					c-0.2,1.8-0.1,3.6,0.7,5.3c0.4,0.8,0.8,1.5,1.4,2.1c1.4,1.5,4.1,2.2,6.1-0.1c1.9-2.2,3.1-4.8,4.2-7.4c3.1-7.9,4.4-16.1,4-24.6
					C148.4,221.1,148.3,220.7,148.2,220.3z M163.1,188.9c0.2-0.3,0.4-0.6,0.5-0.8c0.9-2.7,1.9-5.4,2.8-8.1c0.7-2.1,0.7-4.4,0.5-6.6
					c-0.3-2.4-1-4.6-2.5-6.5c-1.9-2.3-3.9-2.3-5.6,0.2c-0.5,0.7-0.9,1.5-1.1,2.3c-0.3,1.1-0.6,2.3-0.6,3.4
					c-0.2,5.9,1.9,11.1,5.6,15.6C162.7,188.5,162.9,188.7,163.1,188.9z"/>
			</g>
			<g>
				<path d="M329.6,237.1c0,1.1-0.1,2.2,0,3.3c0.3,4.4,1.4,8.5,3.8,12.2c1.1,1.7,2.5,3.1,4.3,4.2c2.2,1.3,4.4,1.2,6.5-0.3
					c2-1.4,3.6-3.2,4.8-5.4c0.5-0.9,0.9-1.9,1.5-2.8c0.5-0.9,1.1-1.7,1.7-2.4c0.4-0.4,0.9-0.8,1.5-1c1.2-0.5,2.4-0.6,3.4,0.3
					c1,0.9,0.8,2.1,0.4,3.1c-0.7,1.8-1.5,3.6-2.5,5.3c-2,3.5-4.8,6.3-8.2,8.5c-7.4,4.7-16.2,3-22.1-1.8c-2.4-2-4.3-4.4-5.8-7.1
					c-0.2-0.4-0.5-0.8-0.7-1.2c0,0-0.1,0-0.2-0.1c-0.3,0.7-0.7,1.5-1.1,2.3c-1.5,3.1-3.4,6-5.8,8.5c-1.8,1.8-3.8,3.2-6.2,3.8
					c-4.1,1-7.8,0.1-11-2.7c-4.5-3.9-7.3-8.8-8.9-14.4c-1.6-5.4-1.8-10.9-1.3-16.4c0.6-6.4,2.4-12.4,5.5-18c1.2-2.3,2.7-4.4,4.6-6.1
					c3.2-2.9,6.9-4.6,11.4-4.2c5.3,0.4,9.5,4.5,10.3,9.8c0.2,1.7,0.2,3.4-0.6,5c-0.6,1.2-1.5,1.7-2.6,1.6c-1-0.1-1.6-0.7-1.8-1.7
					c-0.1-0.5,0-1.1,0-1.7c-0.1-2.4-0.8-4.5-2.4-6.4c-1.7-2-3.2-2.1-5-0.3c-1,1-1.8,2.2-2.5,3.4c-1.7,3.2-2.6,6.6-3.3,10.1
					c-1,4.9-1.3,9.9-0.8,14.8c0.5,5.3,1.6,10.4,3.8,15.3c0.7,1.5,1.6,2.9,2.6,4.2c1.3,1.6,1.8,1.7,3.3,0.3c1.2-1.2,2.4-2.5,3.3-3.9
					c2.4-3.5,4.3-7.3,5.7-11.3c0.2-0.7,0.2-1.5,0.2-2.2c-0.5-10,1.7-19.3,6.9-27.8c2.4-3.9,5.7-7.1,10.2-8.6
					c6.2-2,12.1-1.4,16.8,3.6c4.2,4.5,5.7,9.8,3.6,15.7c-1.7,4.5-5,7.7-9.3,9.8c-3.9,1.9-8,2.6-12.3,2.4
					C330.8,237.1,330.3,237.1,329.6,237.1z M329.9,232.9c1.5,0.1,2.7,0.2,3.9,0.2c7-0.1,11.7-4.1,12.9-11.1c0.5-2.8,0-5.5-1.3-8
					c-0.6-1.2-1.5-2.2-2.7-3c-1.2-0.7-2.5-0.9-3.9-0.2c-1.2,0.6-2.3,1.5-3,2.7c-0.9,1.5-1.9,3.1-2.4,4.8c-1,3-1.7,6.1-2.4,9.1
					C330.5,229.2,330.3,230.9,329.9,232.9z"/>
			</g>
			<g>
				<circle cx="214.7" cy="201.1" r="9.2"/>
			</g>
		</g>
	</g>
	<g>
		<g>
			<path class="st17" d="M334.3,292.7c-3.2,1.6-4.7,1.9-6.3,4.7c-3.8,6.8-2.3,14.9-5.9,14.9c-2,0-2-1.9-2.9-8.3
				c-0.8-5.6-4.2-9.7-10.6-11.1c-0.4-0.1-0.8-0.1-1.2-0.2c-2.7-0.7-2.7-3.9,0-4.5c2.3-0.5,6.3,0,8.9-5c3.9-7.4,2.2-13.3,5.5-13.4
				c4.8-0.1,0,11.9,7.9,16.5c1.3,0.8,2.8,1.4,4.2,2C336.6,289.3,336.2,291.7,334.3,292.7z"/>
		</g>
		<g>
			<path class="st17" d="M145.5,154.6c-3.2,1.6-4.7,1.9-6.3,4.7c-3.8,6.8-2.3,14.9-5.9,14.9c-2,0-2-1.9-2.9-8.3
				c-0.8-5.6-4.2-9.7-10.6-11.1c-0.4-0.1-0.8-0.1-1.2-0.2c-2.7-0.7-2.7-3.9,0-4.5c2.3-0.5,6.3,0,8.9-5c3.9-7.4,2.2-13.3,5.5-13.4
				c4.8-0.1,0,11.9,7.9,16.5c1.3,0.8,2.8,1.4,4.2,2C147.8,151.1,147.4,153.6,145.5,154.6z"/>
		</g>
		<g>
			<path class="st17" d="M171.1,126.1c-2.2,1.1-3.2,1.3-4.2,3.2c-2.5,4.6-1.5,10-3.9,10c-1.4,0-1.3-1.3-1.9-5.6
				c-0.5-3.7-2.8-6.5-7.1-7.4c-0.3-0.1-0.5-0.1-0.8-0.2c-1.8-0.5-1.8-2.6,0-3c1.5-0.4,4.2,0,6-3.3c2.6-5,1.5-8.9,3.7-9
				c3.2-0.1,0,8,5.3,11.1c0.9,0.5,1.8,0.9,2.8,1.3C172.6,123.8,172.4,125.4,171.1,126.1z"/>
		</g>
		<g>
			<path class="st17" d="M78.8,279.6c-2.2,1.1-3.2,1.3-4.2,3.2c-2.5,4.6-1.5,10-3.9,10c-1.4,0-1.3-1.3-1.9-5.6
				c-0.5-3.7-2.8-6.5-7.1-7.4c-0.3-0.1-0.5-0.1-0.8-0.2c-1.8-0.5-1.8-2.6,0-3c1.5-0.4,4.2,0,6-3.3c2.6-5,1.5-8.9,3.7-9
				c3.2-0.1,0,8,5.3,11.1c0.9,0.5,1.8,0.9,2.8,1.3C80.4,277.3,80.1,278.9,78.8,279.6z"/>
		</g>
		<g>
			<path class="st17" d="M341.5,180.5c-2.2,1.1-3.2,1.3-4.2,3.2c-2.5,4.6-1.5,10-3.9,10c-1.4,0-1.3-1.3-1.9-5.6
				c-0.5-3.7-2.8-6.5-7.1-7.4c-0.3-0.1-0.5-0.1-0.8-0.2c-1.8-0.5-1.8-2.6,0-3c1.5-0.4,4.2,0,6-3.3c2.6-5,1.5-8.9,3.7-9
				c3.2-0.1,0,8,5.3,11.1c0.9,0.5,1.8,0.9,2.8,1.3C343,178.2,342.8,179.8,341.5,180.5z"/>
		</g>
	</g>
</g>
</svg>
